<svg xmlns="http://www.w3.org/2000/svg" viewBox="0 0 800 640" role="img" aria-label="Terracotta articulated 3D printed dragon">
  <rect width="800" height="640" fill="#e8e3db"/><ellipse cx="407" cy="516" rx="287" ry="52" fill="#c8c2b8" opacity=".55"/>
  <g fill="#db7045" stroke="#a9472f" stroke-width="5" stroke-linejoin="round"><path d="M215 398c-63-35-84-86-58-154 22 60 65 72 108 40l53 87z"/><path d="M260 361c70-104 204-123 290-31 56 60 38 142-39 173-88 35-201-3-251-142z"/><path d="M468 308l37-105 35 89 77-43-32 97 74 16-73 55z"/><path d="M315 453l-72 93h88l40-68M487 464l53 82h74l-68-118"/><path d="M545 322c45-29 88-22 116 20-43 3-57 20-52 52z"/></g>
  <circle cx="604" cy="340" r="8" fill="#173c32"/><path d="M324 349l-54-46 73 2M392 309l-27-72 68 58M468 310l24-75 27 84" fill="#f08b56" stroke="#a9472f" stroke-width="5"/>
</svg>
