<svg xmlns="http://www.w3.org/2000/svg" viewBox="0 0 960 640" role="img" aria-labelledby="title description">
  <title id="title">A collection of 3D printed home and desk objects</title>
  <desc id="description">A sculptural planter, phone stand, and playful green figure on a studio table.</desc>
  <defs>
    <linearGradient id="wall" x1="0" y1="0" x2="1" y2="1"><stop stop-color="#183c35"/><stop offset="1" stop-color="#071b18"/></linearGradient>
    <linearGradient id="pot" x1="0" y1="0" x2="1" y2="1"><stop stop-color="#fffdf8"/><stop offset="1" stop-color="#d9ddd5"/></linearGradient>
    <filter id="shadow"><feDropShadow dx="0" dy="18" stdDeviation="18" flood-color="#071b18" flood-opacity=".35"/></filter>
  </defs>
  <rect width="960" height="640" fill="url(#wall)"/>
  <circle cx="772" cy="106" r="170" fill="#2f6a57" opacity=".18"/>
  <path d="M0 486h960v154H0z" fill="#d9ded9"/>
  <path d="M0 487h960" stroke="#fff" stroke-opacity=".55" stroke-width="4"/>
  <g filter="url(#shadow)">
    <path d="M330 296h225l-28 225H359z" fill="url(#pot)"/>
    <path d="M361 302c36 40 28 76-7 111 61 22 69 68 10 109M422 298c-38 45-34 85 10 122-45 30-44 65 0 104M490 298c35 46 29 84-12 120 47 27 49 63 3 104" fill="none" stroke="#c6cdc5" stroke-width="18"/>
    <path d="M445 296c-17-76 3-139 61-188-5 82-25 143-61 188z" fill="#72a66d"/>
    <path d="M432 297c-55-52-76-107-62-167 58 52 79 108 62 167z" fill="#517c50"/>
    <path d="M466 298c32-75 77-118 137-127-27 69-72 111-137 127z" fill="#93b978"/>
    <path d="M415 297c-60-16-105-50-136-103 70 11 115 45 136 103z" fill="#70965e"/>
  </g>
  <g filter="url(#shadow)">
    <path d="M125 341h148l50 177H93z" fill="#101715"/>
    <path d="M147 356h95l31 125H117z" fill="#222a27"/>
    <rect x="162" y="229" width="78" height="176" rx="18" fill="#080b0a" transform="rotate(7 201 317)"/>
    <rect x="171" y="242" width="61" height="147" rx="11" fill="#17201d" transform="rotate(7 201 317)"/>
  </g>
  <g filter="url(#shadow)" fill="#55cc89">
    <path d="M700 226l44-97 43 97z"/>
    <rect x="710" y="210" width="70" height="156" rx="32"/>
    <path d="M720 348l-29 139h45l10-93 12 93h44l-34-139z"/>
    <path d="M716 246l-75 74 31 29 62-63M773 246l71 77-33 27-55-65"/>
    <circle cx="730" cy="250" r="6" fill="#153c31"/>
    <circle cx="759" cy="250" r="6" fill="#153c31"/>
    <path d="M731 276q14 13 28 0" fill="none" stroke="#153c31" stroke-width="6" stroke-linecap="round"/>
  </g>
</svg>
